HIERARCHY
ROOT newVegas:Hips
{
	OFFSET 0.000000 96.479958 0.000000
	CHANNELS 6 Xposition Yposition Zposition Xrotation Yrotation Zrotation
	JOINT newVegas:Pelvis
	{
		OFFSET 0.000000 0.000000 0.000000
		CHANNELS 3 Xrotation Yrotation Zrotation
		JOINT newVegas:LeftUpLeg
		{
			OFFSET 18.735201 -5.666702 -4.541200
			CHANNELS 3 Xrotation Yrotation Zrotation
			JOINT newVegas:LeftLeg
			{
				OFFSET -0.021200 -31.938179 0.493100
				CHANNELS 3 Xrotation Yrotation Zrotation
				JOINT newVegas:LeftFoot
				{
					OFFSET 0.021200 -31.938179 -4.336299
					CHANNELS 3 Xrotation Yrotation Zrotation
					JOINT newVegas:LeftToeBase
					{
						OFFSET 0.943001 -26.722000 15.023500
						CHANNELS 3 Xrotation Yrotation Zrotation
						End Site
						{
							OFFSET 0.000000 30.670183 0.000000
						}
					}
				}
				JOINT newVegas:Left_PantLeg
				{
					OFFSET 0.663870 -9.044666 -1.108900
					CHANNELS 3 Xrotation Yrotation Zrotation
					End Site
					{
						OFFSET 1.415995 20.635357 0.000000
					}
				}
			}
		}
		JOINT newVegas:RightUpLeg
		{
			OFFSET -18.735201 -5.666702 -4.541200
			CHANNELS 3 Xrotation Yrotation Zrotation
			JOINT newVegas:RightLeg
			{
				OFFSET 0.018946 -31.938133 0.493100
				CHANNELS 3 Xrotation Yrotation Zrotation
				JOINT newVegas:RightFoot
				{
					OFFSET -0.018946 -31.938126 -4.336299
					CHANNELS 3 Xrotation Yrotation Zrotation
					JOINT newVegas:RightToeBase
					{
						OFFSET -0.943001 -26.722004 15.023500
						CHANNELS 3 Xrotation Yrotation Zrotation
						End Site
						{
							OFFSET 0.000000 30.670187 0.000000
						}
					}
				}
				JOINT newVegas:Right_PantLeg
				{
					OFFSET -0.661674 -9.044716 -1.108900
					CHANNELS 3 Xrotation Yrotation Zrotation
					End Site
					{
						OFFSET -1.415958 20.635269 0.000000
					}
				}
			}
		}
	}
	JOINT newVegas:Spine
	{
		OFFSET 0.000000 10.199997 -0.299500
		CHANNELS 3 Xrotation Yrotation Zrotation
		JOINT newVegas:Spine1
		{
			OFFSET 0.000000 11.900002 -1.516600
			CHANNELS 3 Xrotation Yrotation Zrotation
			JOINT newVegas:Spine2
			{
				OFFSET 0.000000 13.600006 -2.842500
				CHANNELS 3 Xrotation Yrotation Zrotation
				JOINT newVegas:Neck
				{
					OFFSET 0.000000 9.624100 -2.890100
					CHANNELS 3 Xrotation Yrotation Zrotation
					JOINT newVegas:Head
					{
						OFFSET 0.000000 14.068802 -1.351900
						CHANNELS 3 Xrotation Yrotation Zrotation
						JOINT newVegas:Hair_Back
						{
							OFFSET 0.000000 3.231903 -17.524799
							CHANNELS 3 Xrotation Yrotation Zrotation
							End Site
							{
								OFFSET 0.000000 19.849884 0.000000
							}
						}
						JOINT newVegas:Hair_Front
						{
							OFFSET 0.000000 31.260406 4.573800
							CHANNELS 3 Xrotation Yrotation Zrotation
							JOINT newVegas:Hair_Front1
							{
								OFFSET 0.000000 2.284103 11.993300
								CHANNELS 3 Xrotation Yrotation Zrotation
								JOINT newVegas:Hair_Front2
								{
									OFFSET 0.000000 2.284103 11.993300
									CHANNELS 3 Xrotation Yrotation Zrotation
									End Site
									{
										OFFSET 0.000000 12.208862 0.000000
									}
								}
							}
						}
						JOINT newVegas:Jowel
						{
							OFFSET 0.000000 -7.458206 6.864100
							CHANNELS 3 Xrotation Yrotation Zrotation
							End Site
							{
								OFFSET 0.000000 19.849884 0.000000
							}
						}
					}
				}
				JOINT newVegas:LeftShoulder
				{
					OFFSET 15.263000 10.923401 -0.547700
					CHANNELS 3 Xrotation Yrotation Zrotation
					JOINT newVegas:LeftArm
					{
						OFFSET 25.438599 -2.830597 -13.032500
						CHANNELS 3 Xrotation Yrotation Zrotation
						JOINT newVegas:LeftForeArm
						{
							OFFSET 29.960503 0.000000 0.000000
							CHANNELS 3 Xrotation Yrotation Zrotation
							JOINT newVegas:LeftHand
							{
								OFFSET 27.849251 0.000000 0.000000
								CHANNELS 3 Xrotation Yrotation Zrotation
								JOINT newVegas:LeftHandThumb1
								{
									OFFSET 4.487587 -3.305161 6.305391
									CHANNELS 3 Xrotation Yrotation Zrotation
									JOINT newVegas:LeftHandThumb2
									{
										OFFSET 5.480453 -3.164139 3.164143
										CHANNELS 3 Xrotation Yrotation Zrotation
										JOINT newVegas:LeftHandThumb3
										{
											OFFSET 5.159721 -2.978973 2.978967
											CHANNELS 3 Xrotation Yrotation Zrotation
											End Site
											{
												OFFSET 2.494507 5.926697 1.738678
											}
										}
									}
								}
								JOINT newVegas:LeftHandIndex1
								{
									OFFSET 18.578728 -0.527832 5.208049
									CHANNELS 3 Xrotation Yrotation Zrotation
									JOINT newVegas:LeftHandIndex2
									{
										OFFSET 3.192009 0.000000 0.000000
										CHANNELS 3 Xrotation Yrotation Zrotation
										JOINT newVegas:LeftHandIndex3
										{
											OFFSET 3.835129 0.000000 0.000000
											CHANNELS 3 Xrotation Yrotation Zrotation
											End Site
											{
												OFFSET -0.034599 3.816971 0.371180
											}
										}
									}
								}
								JOINT newVegas:LeftHandMiddle1
								{
									OFFSET 18.476105 0.000000 0.000000
									CHANNELS 3 Xrotation Yrotation Zrotation
									JOINT newVegas:LeftHandMiddle2
									{
										OFFSET 3.324875 0.000000 0.000000
										CHANNELS 3 Xrotation Yrotation Zrotation
										JOINT newVegas:LeftHandMiddle3
										{
											OFFSET 4.596550 0.000000 0.000000
											CHANNELS 3 Xrotation Yrotation Zrotation
											End Site
											{
												OFFSET 0.057701 4.578827 0.399218
											}
										}
									}
								}
								JOINT newVegas:LeftHandRing1
								{
									OFFSET 17.732719 0.121887 -4.201567
									CHANNELS 3 Xrotation Yrotation Zrotation
									JOINT newVegas:LeftHandRing2
									{
										OFFSET 2.733170 0.000000 0.000000
										CHANNELS 3 Xrotation Yrotation Zrotation
										JOINT newVegas:LeftHandRing3
										{
											OFFSET 3.178268 0.000000 0.000000
											CHANNELS 3 Xrotation Yrotation Zrotation
											End Site
											{
												OFFSET 0.119102 3.170624 0.185394
											}
										}
									}
								}
								JOINT newVegas:LeftHandPinky1
								{
									OFFSET 15.989624 -0.606689 -7.535461
									CHANNELS 3 Xrotation Yrotation Zrotation
									JOINT newVegas:LeftHandPinky2
									{
										OFFSET 2.538986 0.000000 0.000000
										CHANNELS 3 Xrotation Yrotation Zrotation
										JOINT newVegas:LeftHandPinky3
										{
											OFFSET 2.593102 0.000000 0.000000
											CHANNELS 3 Xrotation Yrotation Zrotation
											End Site
											{
												OFFSET -0.150902 2.584198 0.152708
											}
										}
									}
								}
							}
							JOINT newVegas:Left_Sleeve
							{
								OFFSET 0.267448 -0.649796 0.577675
								CHANNELS 3 Xrotation Yrotation Zrotation
								End Site
								{
									OFFSET 0.000000 15.991241 0.000000
								}
							}
							JOINT newVegas:Left_CapeC
							{
								OFFSET 15.715958 -8.608795 -6.935905
								CHANNELS 3 Xrotation Yrotation Zrotation
								JOINT newVegas:Left_CapeC1
								{
									OFFSET 0.000000 -8.688499 0.000000
									CHANNELS 3 Xrotation Yrotation Zrotation
									End Site
									{
										OFFSET 0.000000 8.688499 0.000000
									}
								}
							}
						}
						JOINT newVegas:Left_CapeB
						{
							OFFSET 26.118385 -8.608795 -7.079235
							CHANNELS 3 Xrotation Yrotation Zrotation
							JOINT newVegas:Left_CapeB1
							{
								OFFSET 0.000000 -8.688499 0.000000
								CHANNELS 3 Xrotation Yrotation Zrotation
								End Site
								{
									OFFSET 0.000000 8.688499 0.000000
								}
							}
						}
						JOINT newVegas:Left_CapeA
						{
							OFFSET 5.115639 -8.608795 -10.395809
							CHANNELS 3 Xrotation Yrotation Zrotation
							JOINT newVegas:Left_CapeA1
							{
								OFFSET 0.000000 -8.688499 0.000000
								CHANNELS 3 Xrotation Yrotation Zrotation
								End Site
								{
									OFFSET 0.000000 8.688499 0.000000
								}
							}
						}
					}
				}
				JOINT newVegas:RightShoulder
				{
					OFFSET -15.263000 10.923401 -0.547700
					CHANNELS 3 Xrotation Yrotation Zrotation
					JOINT newVegas:RightArm
					{
						OFFSET -25.438599 -2.830597 -13.032500
						CHANNELS 3 Xrotation Yrotation Zrotation
						JOINT newVegas:RightForeArm
						{
							OFFSET -29.960503 0.000000 0.000000
							CHANNELS 3 Xrotation Yrotation Zrotation
							JOINT newVegas:RightHand
							{
								OFFSET -27.849251 0.000000 0.000000
								CHANNELS 3 Xrotation Yrotation Zrotation
								JOINT newVegas:RightHandThumb1
								{
									OFFSET -4.487587 -3.305161 6.305391
									CHANNELS 3 Xrotation Yrotation Zrotation
									JOINT newVegas:RightHandThumb2
									{
										OFFSET -5.480453 -3.164139 3.164143
										CHANNELS 3 Xrotation Yrotation Zrotation
										JOINT newVegas:RightHandThumb3
										{
											OFFSET -5.159721 -2.978973 2.978967
											CHANNELS 3 Xrotation Yrotation Zrotation
											End Site
											{
												OFFSET -2.494507 5.926697 1.738678
											}
										}
									}
								}
								JOINT newVegas:RightHandIndex1
								{
									OFFSET -18.578728 -0.527832 5.208049
									CHANNELS 3 Xrotation Yrotation Zrotation
									JOINT newVegas:RightHandIndex2
									{
										OFFSET -3.192009 0.000000 0.000000
										CHANNELS 3 Xrotation Yrotation Zrotation
										JOINT newVegas:RightHandIndex3
										{
											OFFSET -3.835129 0.000000 0.000000
											CHANNELS 3 Xrotation Yrotation Zrotation
											End Site
											{
												OFFSET 0.034599 3.816971 0.371180
											}
										}
									}
								}
								JOINT newVegas:RightHandMiddle1
								{
									OFFSET -18.476105 0.000000 0.000000
									CHANNELS 3 Xrotation Yrotation Zrotation
									JOINT newVegas:RightHandMiddle2
									{
										OFFSET -3.324875 0.000000 0.000000
										CHANNELS 3 Xrotation Yrotation Zrotation
										JOINT newVegas:RightHandMiddle3
										{
											OFFSET -4.596550 0.000000 0.000000
											CHANNELS 3 Xrotation Yrotation Zrotation
											End Site
											{
												OFFSET -0.057701 4.578827 0.399218
											}
										}
									}
								}
								JOINT newVegas:RightHandRing1
								{
									OFFSET -17.732719 0.121887 -4.201567
									CHANNELS 3 Xrotation Yrotation Zrotation
									JOINT newVegas:RightHandRing2
									{
										OFFSET -2.733170 0.000000 0.000000
										CHANNELS 3 Xrotation Yrotation Zrotation
										JOINT newVegas:RightHandRing3
										{
											OFFSET -3.178268 0.000000 0.000000
											CHANNELS 3 Xrotation Yrotation Zrotation
											End Site
											{
												OFFSET -0.119102 3.170624 0.185394
											}
										}
									}
								}
								JOINT newVegas:RightHandPinky1
								{
									OFFSET -15.989624 -0.606689 -7.535461
									CHANNELS 3 Xrotation Yrotation Zrotation
									JOINT newVegas:RightHandPinky2
									{
										OFFSET -2.538986 0.000000 0.000000
										CHANNELS 3 Xrotation Yrotation Zrotation
										JOINT newVegas:RightHandPinky3
										{
											OFFSET -2.593102 0.000000 0.000000
											CHANNELS 3 Xrotation Yrotation Zrotation
											End Site
											{
												OFFSET 0.150902 2.584198 0.152708
											}
										}
									}
								}
							}
							JOINT newVegas:Right_CapeC
							{
								OFFSET -15.715958 -8.608795 -6.935905
								CHANNELS 3 Xrotation Yrotation Zrotation
								JOINT newVegas:Right_CapeC1
								{
									OFFSET 0.000000 -8.688499 0.000000
									CHANNELS 3 Xrotation Yrotation Zrotation
									End Site
									{
										OFFSET 0.000000 8.688499 0.000000
									}
								}
							}
							JOINT newVegas:Right_Sleeve
							{
								OFFSET -0.267448 -0.649994 0.577675
								CHANNELS 3 Xrotation Yrotation Zrotation
								End Site
								{
									OFFSET 0.000000 15.991302 0.000000
								}
							}
						}
						JOINT newVegas:Right_CapeA
						{
							OFFSET -5.115540 -8.608795 -10.395824
							CHANNELS 3 Xrotation Yrotation Zrotation
							JOINT newVegas:Right_CapeA1
							{
								OFFSET 0.000000 -8.688499 0.000000
								CHANNELS 3 Xrotation Yrotation Zrotation
								End Site
								{
									OFFSET 0.000000 8.688499 0.000000
								}
							}
						}
						JOINT newVegas:Right_CapeB
						{
							OFFSET -26.118187 -8.608795 -7.079266
							CHANNELS 3 Xrotation Yrotation Zrotation
							JOINT newVegas:Right_CapeB1
							{
								OFFSET 0.000000 -8.688499 0.000000
								CHANNELS 3 Xrotation Yrotation Zrotation
								End Site
								{
									OFFSET 0.000000 8.688499 0.000000
								}
							}
						}
					}
				}
				JOINT newVegas:Left_Collar
				{
					OFFSET 18.625099 8.655502 8.828100
					CHANNELS 3 Xrotation Yrotation Zrotation
					JOINT newVegas:Left_Collar1
					{
						OFFSET 14.783401 10.540405 -1.259500
						CHANNELS 3 Xrotation Yrotation Zrotation
						End Site
						{
							OFFSET 0.000000 18.199875 0.000000
						}
					}
				}
				JOINT newVegas:Collar_Back
				{
					OFFSET 0.000000 15.630707 -20.132601
					CHANNELS 3 Xrotation Yrotation Zrotation
					End Site
					{
						OFFSET 0.000000 22.523010 0.000000
					}
				}
				JOINT newVegas:Left_Peck
				{
					OFFSET 17.239599 -5.132599 25.482599
					CHANNELS 3 Xrotation Yrotation Zrotation
					End Site
					{
						OFFSET 0.000000 22.523010 0.000000
					}
				}
				JOINT newVegas:Right_Peck
				{
					OFFSET -17.239599 -5.132202 25.482599
					CHANNELS 3 Xrotation Yrotation Zrotation
					End Site
					{
						OFFSET 0.000000 22.523010 0.000000
					}
				}
				JOINT newVegas:Right_Collar
				{
					OFFSET -18.625099 8.655792 8.828100
					CHANNELS 3 Xrotation Yrotation Zrotation
					JOINT newVegas:Right_Collar1
					{
						OFFSET -14.783401 10.539993 -1.259500
						CHANNELS 3 Xrotation Yrotation Zrotation
						End Site
						{
							OFFSET 0.000000 18.199631 0.000000
						}
					}
				}
			}
		}
		JOINT newVegas:Belly
		{
			OFFSET 0.000000 -6.540398 9.014299
			CHANNELS 3 Xrotation Yrotation Zrotation
			End Site
			{
				OFFSET 0.000000 11.566666 0.000000
			}
		}
	}
	JOINT newVegas:ElvisFacialAnim_Joint
	{
		OFFSET 1.000000 -95.330101 -8.825800
		CHANNELS 3 Xrotation Yrotation Zrotation
		End Site
		{
			OFFSET 0.000000 35.315800 0.000000
		}
	}
}
MOTION
Frames: 4
Frame Time: 0.016667
0.387593 79.734093 4.133722 11.812294 3.008223 -1.245769 -0.000001 0.000000 0.000000 -56.035681 1.389092 5.039705 78.794961 7.352829 -0.693965 -33.464362 5.815964 -5.648666 -0.000000 -0.000003 0.000000 0.000000 0.000001 0.000000 -49.926709 -15.112335 -5.472645 76.442357 -8.333852 -4.623734 -39.018429 -10.511855 4.629324 0.000000 -0.000001 -0.000000 0.000000 0.000000 -0.000002 9.876419 1.422075 1.117378 7.603461 0.776395 0.053754 7.594519 0.865696 0.034386 -4.516996 -0.590505 3.020030 -4.516982 -0.590503 3.020031 0.000002 0.000000 0.000000 -4.516974 -0.590500 3.020031 -4.517033 -0.590497 3.020029 -0.000001 0.000000 -0.000000 0.000002 0.000000 0.000000 3.557358 -26.212552 4.772374 -62.448706 -21.862951 -66.788219 0.000227 -109.334342 0.000222 0.750553 -5.137682 14.576868 -15.245211 10.163099 26.456295 3.939047 7.948699 0.746825 0.000003 -0.000002 -0.000001 -0.000011 0.000005 -0.000007 0.000015 0.000011 -0.000077 -0.000001 -0.000001 0.000001 -0.000006 -0.001922 0.015961 -0.000002 0.001941 -0.016038 -0.000001 -0.000000 0.000002 -0.000006 0.000002 -0.000005 0.000002 0.000025 -0.000084 -0.000001 -0.000002 0.000004 -0.018085 4.054249 0.511047 -0.018084 -4.054234 -0.511124 0.000001 -0.000002 -0.000002 0.000002 -0.000001 -0.000001 0.000002 -0.000001 -0.000001 0.000002 -0.000001 -0.000001 0.000000 0.000001 0.000000 0.000000 0.000000 0.000000 0.000000 0.000001 0.000000 -0.000002 -0.000000 0.000001 1.196401 13.130266 10.955147 -58.753226 43.561195 51.473754 -0.000001 106.323950 -0.000012 3.436626 -3.949662 -38.593533 -6.948214 -5.049363 -29.742991 4.637194 -8.634125 -0.225405 0.000000 -0.000003 -0.000004 -0.000001 0.000004 -0.000003 0.000012 -0.000016 0.000087 -0.000001 -0.000001 -0.000000 -0.000004 0.000000 -0.000008 0.000009 -0.000011 0.000090 -0.000000 -0.000002 -0.000000 -0.000002 0.000006 0.000010 0.000008 -0.000015 0.000064 -0.000001 0.000001 -0.000000 -0.000004 0.000007 0.000004 0.000011 -0.000008 0.000083 0.000001 0.000003 -0.000000 -0.000000 0.000002 -0.000003 -0.000000 0.000002 0.000001 -0.000000 0.000002 -0.000002 -0.000004 0.000004 -0.000003 -0.000004 0.000005 -0.000001 -0.000004 0.000004 -0.000003 -0.000004 0.000005 -0.000001 0.000001 0.000000 0.000000 0.000001 0.000000 0.000000 0.000001 0.000000 0.000000 0.000001 0.000000 0.000000 0.000001 0.000000 0.000000 0.000001 0.000000 0.000000 0.000001 0.000000 0.000000 -0.000000 -0.000000 -0.000000 -0.000001 0.000000 0.000000 
0.384288 79.732231 4.131514 11.800202 2.998198 -1.239632 -0.000000 -0.000000 0.000000 -56.022291 1.388888 5.042355 78.799715 7.355635 -0.696706 -33.470201 5.818925 -5.653960 0.000000 0.000000 -0.000000 0.000000 0.000001 -0.000000 -49.925780 -15.113236 -5.465289 76.451796 -8.334607 -4.636442 -39.019081 -10.514415 4.626971 0.000000 -0.000001 -0.000000 -0.000002 -0.000001 -0.000000 9.880085 1.416574 1.124798 7.606521 0.771335 0.057330 7.597684 0.860256 0.038070 -4.515447 -0.587830 3.010434 -4.515447 -0.587829 3.010431 0.000001 0.000000 0.000000 -4.515455 -0.587832 3.010427 -4.515441 -0.587825 3.010432 -0.000002 -0.000000 -0.000000 0.000001 0.000000 0.000000 3.557354 -26.212552 4.772373 -62.440258 -21.827236 -66.761705 -0.000044 -109.308695 -0.000056 0.684140 -5.143283 14.587546 -15.245214 10.163107 26.456290 3.939044 7.948699 0.746822 0.000003 0.000003 -0.000006 -0.000011 0.000010 -0.000008 0.000012 0.000016 -0.000078 -0.000002 -0.000000 0.000001 -0.000005 -0.001916 0.015959 -0.000002 0.001944 -0.016038 0.000002 -0.000000 -0.000000 -0.000006 0.000009 -0.000010 -0.000001 0.000023 -0.000083 0.000001 -0.000001 0.000000 -0.018085 4.054257 0.511043 -0.018084 -4.054237 -0.511125 -0.000001 -0.000002 -0.000000 -0.000000 0.000001 -0.000002 -0.000000 0.000001 -0.000002 -0.000000 0.000001 -0.000002 -0.000004 0.000002 0.000000 -0.000004 0.000001 0.000000 -0.000004 0.000002 0.000000 -0.000006 0.000001 0.000001 1.196369 13.156127 10.917909 -58.738800 43.556174 51.453219 0.000444 106.272703 -0.000433 3.405172 -3.961058 -38.612091 -6.948216 -5.049358 -29.742991 4.637193 -8.634122 -0.225409 0.000002 -0.000004 -0.000001 -0.000001 0.000006 -0.000003 0.000012 -0.000014 0.000088 -0.000001 -0.000002 -0.000000 -0.000004 0.000006 -0.000006 0.000009 -0.000005 0.000090 0.000000 -0.000002 -0.000000 -0.000002 0.000009 0.000011 0.000009 -0.000013 0.000067 0.000001 -0.000001 0.000000 -0.000004 0.000005 0.000004 0.000011 -0.000005 0.000082 -0.000000 0.000002 0.000000 0.000002 0.000002 -0.000001 -0.000000 0.000000 -0.000001 0.000002 0.000002 -0.000002 -0.000002 0.000002 0.000000 -0.000002 0.000003 -0.000000 -0.000002 0.000002 0.000000 -0.000002 0.000003 0.000002 0.000000 -0.000000 0.000000 0.000000 -0.000000 0.000000 0.000000 -0.000000 0.000000 0.000000 -0.000000 0.000000 0.000000 -0.000000 0.000000 0.000000 -0.000000 0.000000 0.000000 -0.000000 0.000000 0.000001 0.000000 -0.000000 -0.000000 -0.000000 0.000000 
0.381352 79.729950 4.129362 11.790810 2.990602 -1.234752 0.000001 -0.000000 0.000000 -56.012964 1.389305 5.043137 78.804878 7.358458 -0.697021 -33.475529 5.823574 -5.658561 -0.000000 -0.000001 0.000000 -0.000000 0.000001 0.000000 -49.927006 -15.118777 -5.461956 76.461167 -8.334469 -4.648604 -39.021584 -10.513899 4.625176 0.000000 -0.000001 -0.000000 0.000002 -0.000001 -0.000000 9.883291 1.410855 1.131250 7.609028 0.766256 0.060673 7.600269 0.854941 0.041498 -4.515222 -0.585701 3.004012 -4.515204 -0.585700 3.004019 -0.000002 0.000000 0.000001 -4.515229 -0.585700 3.004013 -4.515227 -0.585705 3.004019 -0.000000 -0.000000 0.000001 -0.000002 0.000000 0.000001 3.557360 -26.212550 4.772373 -62.433502 -21.799051 -66.740319 0.000131 -109.303046 0.000138 0.645380 -5.153771 14.610222 -15.245214 10.163099 26.456285 3.939047 7.948701 0.746827 0.000004 0.000001 -0.000003 -0.000012 0.000003 -0.000007 0.000015 0.000006 -0.000078 -0.000001 0.000002 -0.000001 -0.000006 -0.001923 0.015957 -0.000003 0.001944 -0.016034 0.000001 -0.000000 -0.000000 -0.000008 0.000002 -0.000009 0.000003 0.000014 -0.000082 -0.000001 0.000003 0.000001 -0.018086 4.054249 0.511043 -0.018083 -4.054237 -0.511122 0.000001 0.000002 0.000001 -0.000001 -0.000003 0.000001 -0.000001 -0.000003 0.000001 -0.000001 -0.000003 0.000001 0.000001 -0.000001 -0.000000 0.000001 -0.000002 -0.000000 0.000001 -0.000001 -0.000000 -0.000000 -0.000002 -0.000001 1.196233 13.178830 10.886483 -58.723351 43.560351 51.421045 0.000709 106.244726 -0.000710 3.384675 -3.970393 -38.621271 -6.948214 -5.049359 -29.742994 4.637196 -8.634124 -0.225407 0.000002 -0.000005 0.000001 -0.000001 0.000007 -0.000004 0.000012 -0.000014 0.000087 -0.000001 0.000005 -0.000001 -0.000003 0.000010 -0.000007 0.000009 -0.000009 0.000090 0.000001 0.000001 -0.000001 -0.000001 0.000012 0.000010 0.000008 -0.000013 0.000066 0.000001 -0.000003 0.000001 -0.000004 0.000008 0.000004 0.000011 -0.000010 0.000082 -0.000000 -0.000000 -0.000000 0.000001 0.000001 -0.000000 0.000001 -0.000000 0.000002 0.000001 0.000001 0.000002 -0.000001 -0.000003 0.000002 -0.000001 -0.000002 0.000003 -0.000001 -0.000003 0.000002 -0.000001 -0.000002 0.000003 0.000003 0.000000 -0.000000 0.000003 0.000000 -0.000000 0.000003 0.000000 -0.000000 0.000003 0.000000 -0.000000 0.000003 0.000000 -0.000000 0.000003 0.000000 -0.000000 0.000003 0.000000 -0.000000 0.000002 0.000000 -0.000000 0.000001 -0.000000 0.000000 
0.378977 79.727402 4.127470 11.784670 2.985398 -1.230921 -0.000000 0.000000 -0.000000 -56.008617 1.390645 5.041693 78.810322 7.361379 -0.694388 -33.479641 5.828707 -5.662733 0.000000 0.000002 -0.000000 0.000003 -0.000001 0.000001 -49.930817 -15.126333 -5.463391 76.470675 -8.332517 -4.657756 -39.024682 -10.510398 4.623676 0.000000 -0.000001 0.000000 0.000002 0.000000 -0.000001 9.886053 1.404578 1.135867 7.610894 0.761037 0.063448 7.602197 0.849653 0.044323 -4.516461 -0.584135 3.001116 -4.516460 -0.584133 3.001118 -0.000001 -0.000000 0.000000 -4.516392 -0.584141 3.001117 -4.516531 -0.584129 3.001115 -0.000001 0.000000 0.000001 -0.000001 -0.000000 0.000000 3.557360 -26.212550 4.772373 -62.430456 -21.781197 -66.726365 0.000311 -109.318428 0.000321 0.640051 -5.168575 14.635379 -15.245209 10.163100 26.456290 3.939047 7.948697 0.746821 0.000001 0.000002 -0.000004 -0.000010 0.000003 -0.000008 0.000014 0.000012 -0.000079 -0.000001 -0.000001 -0.000001 -0.000006 -0.001923 0.015959 -0.000004 0.001944 -0.016036 0.000000 -0.000002 -0.000000 -0.000007 0.000003 -0.000010 0.000001 0.000018 -0.000082 -0.000001 -0.000001 0.000001 -0.018087 4.054254 0.511045 -0.018084 -4.054239 -0.511124 0.000001 0.000002 0.000001 -0.000001 -0.000000 0.000002 -0.000001 -0.000000 0.000002 -0.000001 -0.000000 0.000002 0.000001 -0.000001 -0.000001 0.000001 -0.000002 -0.000001 0.000001 -0.000001 -0.000001 -0.000001 -0.000002 -0.000000 1.195825 13.196535 10.865739 -58.712702 43.570764 51.388537 -0.000381 106.243893 0.000383 3.384071 -3.974720 -38.619911 -6.948216 -5.049361 -29.742998 4.637192 -8.634125 -0.225405 -0.000000 -0.000002 -0.000001 -0.000001 0.000003 -0.000004 0.000011 -0.000013 0.000087 -0.000001 0.000002 -0.000000 -0.000003 0.000006 -0.000007 0.000009 -0.000005 0.000090 0.000000 -0.000003 -0.000001 -0.000002 0.000008 0.000010 0.000008 -0.000010 0.000065 -0.000000 0.000004 0.000001 -0.000004 0.000005 0.000004 0.000011 -0.000009 0.000083 0.000000 0.000003 0.000000 -0.000000 -0.000001 -0.000001 -0.000002 -0.000003 -0.000001 -0.000000 -0.000002 -0.000002 -0.000001 0.000003 -0.000003 -0.000001 0.000004 -0.000001 -0.000001 0.000003 -0.000003 -0.000001 0.000003 -0.000001 0.000001 0.000000 -0.000000 0.000001 0.000000 -0.000000 0.000001 0.000000 -0.000000 0.000001 0.000000 -0.000000 0.000001 0.000000 -0.000000 0.000001 0.000000 -0.000000 0.000001 0.000000 -0.000000 0.000000 0.000000 0.000000 -0.000000 0.000000 -0.000000 
